<svg version="1.2" xmlns="http://www.w3.org/2000/svg" viewBox="0 0 200 200" width="200" height="200">
	<title>Self confidence-rafiki (2)-svg</title>
	<style>
		.s0 { fill: #c53f3f } 
		.s1 { fill: #ffffff } 
		.s2 { fill: #ffb573 } 
		.s3 { opacity: .2;fill: #000000 } 
		.s4 { opacity: .3;fill: #000000 } 
		.s5 { opacity: .7;fill: #ffffff } 
		.s6 { opacity: .5;fill: #ffffff } 
		.s7 { fill: #263238 } 
		.s8 { opacity: .6;fill: #ffffff } 
		.s9 { opacity: .2;fill: #ffffff } 
		.s10 { opacity: .3;fill: #ffffff } 
		.s11 { fill: #000000 } 
		.s12 { opacity: .6;fill: #000000 } 
		.s13 { fill: #ed893e } 
		.s14 { opacity: .1;fill: #000000 } 
	</style>
	<g id="freepik--background-simple--inject-2">
		<g id="Layer" style="opacity: .9">
			<path id="Layer" class="s0" d="m125.4 100.9q-0.9-0.1-1.7 0.1q-0.8 0.1-1.5 0.5q-0.7 0.4-1.3 1.1c-1.6 1.7-2.1 4.1-2.1 6.4c0 2.3-0.3 31.6-10.1 42.7c-13.2 14.9-31.7 13.2-41 11.6c-10.3-1.7-27.8-8.4-36.6-24.2c-9.3-17-14.4-46.8 6.3-65.6c16.6-15.1 47.5 0.8 47.4-14.2c-0.2-27.6 16.5-40.2 40-38.5c9.1 0.6 17.5 5.6 23.7 12.2c6.2 6.7 10.2 15.1 12.4 23.9c1.8 7.5 2.4 15.5 0.6 23c-1.8 7.5-6 14.6-12.5 19c-6.4 4.3-15 5.6-22 2.4q-0.8-0.3-1.6-0.4z"/>
		</g>
		<g id="Layer" style="opacity: .9">
			<path id="Layer" class="s1" d="m125.4 100.9q-0.9-0.1-1.7 0.1q-0.8 0.1-1.5 0.5q-0.7 0.4-1.3 1.1c-1.6 1.7-2.1 4.1-2.1 6.4c0 2.3-0.3 31.6-10.1 42.7c-13.2 14.9-31.7 13.2-41 11.6c-10.3-1.7-27.8-8.4-36.6-24.2c-9.3-17-14.4-46.8 6.3-65.6c16.6-15.1 47.5 0.8 47.4-14.2c-0.2-27.6 16.5-40.2 40-38.5c9.1 0.6 17.5 5.6 23.7 12.2c6.2 6.7 10.2 15.1 12.4 23.9c1.8 7.5 2.4 15.5 0.6 23c-1.8 7.5-6 14.6-12.5 19c-6.4 4.3-15 5.6-22 2.4q-0.8-0.3-1.6-0.4z"/>
		</g>
	</g>
	<g id="freepik--character-2--inject-2">
		<path id="Layer" class="s0" d="m93.5 76c1.3-0.9 1.4-4.4 1.7-6.9c0.3-2.2-0.7-9.1-2.2-11.3l13.1 5.4q-0.1 0.1-0.1 0.3q0 0.1-0.1 0.3q0 0.1 0 0.3q-0.1 0.1-0.1 0.3q-0.1 0.6-0.2 1.2q-0.1 0.7-0.1 1.3q-0.1 0.7-0.1 1.3q0 0.7 0 1.3q0 0.7 0 1.3c0.2 2.3 0.7 4.5 2.2 5.4z"/>
		<g id="Layer" style="opacity: .7">
			<path id="Layer" class="s1" d="m93.5 76c1.3-0.9 1.4-4.4 1.7-6.9c0.3-2.2-0.7-9.1-2.2-11.3l13.1 5.4q-0.1 0.1-0.1 0.3q0 0.1-0.1 0.3q0 0.1 0 0.3q-0.1 0.1-0.1 0.3q-0.1 0.6-0.2 1.2q-0.1 0.7-0.1 1.3q-0.1 0.7-0.1 1.3q0 0.7 0 1.3q0 0.7 0 1.3c0.2 2.3 0.7 4.5 2.2 5.4z"/>
		</g>
		<path id="Layer" class="s2" d="m107.6 76.2c3.2 2.1 3.5 4.7 2.6 7.1c-2 5.3-8.8 6.9-13.2 3.2q-0.4-0.3-0.7-0.7q-0.4-0.3-0.7-0.7q-0.4-0.3-0.7-0.7q-0.4-0.3-0.7-0.7c-2.3-2.6-3.5-5.7-0.7-7.7z"/>
		<path id="Layer" class="s3" d="m95.7 62.4l10.1 2q-0.1 0.6-0.2 1.2q-0.1 0.7-0.1 1.3q-0.1 0.7-0.1 1.3q0 0.7 0 1.3q0 0.7 0 1.3c-4.6-2-7.6-6.3-9.7-8.4z"/>
		<path id="Layer" class="s0" d="m118.7 47.5c-0.3 2.1-3.3 5.6-3.1 5.4q0 0 0-0.1q0.1-0.1 0.1-0.2q0-0.1 0-0.2q0-0.1 0-0.2q0-0.4-0.1-0.7q0-0.4-0.1-0.8q-0.1-0.3-0.2-0.7q-0.2-0.3-0.3-0.6c-0.3 1.2-0.7 3.7-1.8 3.7c-0.5-0.9-1.1-1.7-1-2.7q-0.4 1.5-0.8 3.1c-2.3-1.4-3.8-4.7-3.3-7.5q0-0.2 0.1-0.5q0-0.2 0.1-0.5q0.1-0.2 0.2-0.4q0.1-0.2 0.3-0.5q0.1-0.2 0.3-0.4q0.2-0.2 0.4-0.5q0.2-0.2 0.4-0.4q0.2-0.2 0.4-0.3c1.5-1.4 2.1-2 4.1-2c4.4 0 4.6 4.8 4.3 7z"/>
		<path id="Layer" class="s4" d="m118.7 47.5c-0.3 2.1-3.3 5.6-3.1 5.4q0 0 0-0.1q0.1-0.1 0.1-0.2q0-0.1 0-0.2q0-0.1 0-0.2q0-0.4-0.1-0.7q0-0.4-0.1-0.8q-0.1-0.3-0.2-0.7q-0.2-0.3-0.3-0.6c-0.3 1.2-0.7 3.7-1.8 3.7c-0.5-0.9-1.1-1.7-1-2.7q-0.4 1.5-0.8 3.1c-2.3-1.4-3.8-4.7-3.3-7.5q0-0.2 0.1-0.5q0-0.2 0.1-0.5q0.1-0.2 0.2-0.4q0.1-0.2 0.3-0.5q0.1-0.2 0.3-0.4q0.2-0.2 0.4-0.5q0.2-0.2 0.4-0.4q0.2-0.2 0.4-0.3c1.5-1.4 2.1-2 4.1-2c4.4 0 4.6 4.8 4.3 7z"/>
		<path id="Layer" class="s0" d="m116.5 58.1c-1.7 8.8-12.2 13.5-19.2 7.1c-4-3.6-4.7-8-5.4-14.7q-0.2-1.6-0.4-3.3q0-0.7 0-1.3q-0.1-0.7 0-1.4q0.1-0.6 0.2-1.3q0.2-0.7 0.4-1.3q0.1-0.3 0.2-0.5q0.1-0.3 0.2-0.5q0.1-0.3 0.2-0.6q0.1-0.2 0.3-0.4q1-1.9 2.6-3.3q1.6-1.3 3.6-2.1q1.9-0.8 4-0.8q2.1-0.1 4.1 0.6c8.8 3 10.6 15.8 9.2 23.8z"/>
		<path id="Layer" class="s5" d="m116.5 58.1c-1.7 8.8-12.2 13.5-19.2 7.1c-4-3.6-4.7-8-5.4-14.7q-0.2-1.6-0.4-3.3q0-0.7 0-1.3q-0.1-0.7 0-1.4q0.1-0.6 0.2-1.3q0.2-0.7 0.4-1.3q0.1-0.3 0.2-0.5q0.1-0.3 0.2-0.5q0.1-0.3 0.2-0.6q0.1-0.2 0.3-0.4q1-1.9 2.6-3.3q1.6-1.3 3.6-2.1q1.9-0.8 4-0.8q2.1-0.1 4.1 0.6c8.8 3 10.6 15.8 9.2 23.8z"/>
		<ellipse id="Layer" class="s0" cx="105.6" cy="48.8" rx=".9" ry="1.3"/>
		<ellipse id="Layer" class="s4" cx="105.6" cy="48.8" rx=".9" ry="1.3"/>
		<ellipse id="Layer" class="s0" cx="113.5" cy="48.7" rx=".8" ry="1.3"/>
		<ellipse id="Layer" class="s4" cx="113.5" cy="48.7" rx=".8" ry="1.3"/>
		<path id="Layer" class="s0" d="m109.8 48.8c1.1 2 2.9 3.8 4.6 5.5c-0.9 0.8-3.1 1.5-4.3 1.4z"/>
		<path id="Layer" class="s6" d="m109.8 48.8c1.1 2 2.9 3.8 4.6 5.5c-0.9 0.8-3.1 1.5-4.3 1.4z"/>
		<path id="Layer" class="s0" d="m104.1 44.7q0 0-0.1 0q0-0.1 0-0.1q-0.1 0-0.1-0.1q0 0 0 0q-0.1 0-0.1-0.1q0 0 0 0q0 0 0-0.1q0 0 0-0.1q0-0.1 0.1-0.2q0 0 0.1-0.1q0.1 0 0.1 0q0.5-0.1 1-0.1q0.5 0 1 0.2q0.5 0.1 0.9 0.4q0.4 0.2 0.8 0.6q0.1 0.1 0.1 0.3q0 0.1-0.1 0.3q-0.1 0.1-0.3 0.1q-0.1 0-0.3-0.1q0 0 0 0q0 0 0 0q0 0 0 0q0-0.1 0-0.1q-0.3-0.2-0.7-0.4q-0.3-0.2-0.7-0.3q-0.4-0.2-0.8-0.2q-0.4 0-0.8 0.1q0 0-0.1 0z"/>
		<path id="Layer" class="s4" d="m104.1 44.7q0 0-0.1 0q0-0.1 0-0.1q-0.1 0-0.1-0.1q0 0 0 0q-0.1 0-0.1-0.1q0 0 0 0q0 0 0-0.1q0 0 0-0.1q0-0.1 0.1-0.2q0 0 0.1-0.1q0.1 0 0.1 0q0.5-0.1 1-0.1q0.5 0 1 0.2q0.5 0.1 0.9 0.4q0.4 0.2 0.8 0.6q0.1 0.1 0.1 0.3q0 0.1-0.1 0.3q-0.1 0.1-0.3 0.1q-0.1 0-0.3-0.1q0 0 0 0q0 0 0 0q0 0 0 0q0-0.1 0-0.1q-0.3-0.2-0.7-0.4q-0.3-0.2-0.7-0.3q-0.4-0.2-0.8-0.2q-0.4 0-0.8 0.1q0 0-0.1 0z"/>
		<path id="Layer" class="s0" d="m116.4 43.9q0 0-0.1 0.1q0 0 0 0q0 0 0 0.1q0 0-0.1 0q0 0.1 0 0.1q-0.1 0-0.1 0q-0.1 0-0.1 0q-0.4 0-0.8 0.1q-0.4 0.1-0.8 0.3q-0.3 0.1-0.6 0.4q-0.3 0.2-0.6 0.5q0 0.1-0.1 0.2q0 0-0.1 0q-0.1 0-0.2 0q0 0-0.1 0q-0.1-0.1-0.2-0.1q0-0.1 0-0.2q0-0.1 0-0.1q0-0.1 0-0.2q0.3-0.4 0.7-0.7q0.4-0.3 0.8-0.5q0.5-0.3 1-0.4q0.4-0.1 0.9-0.1q0.1 0 0.2 0.1q0.1 0 0.1 0.1q0.1 0 0.1 0.1q0.1 0.1 0.1 0.1q0 0.1 0 0.1z"/>
		<path id="Layer" class="s4" d="m116.4 43.9q0 0-0.1 0.1q0 0 0 0q0 0 0 0.1q0 0-0.1 0q0 0.1 0 0.1q-0.1 0-0.1 0q-0.1 0-0.1 0q-0.4 0-0.8 0.1q-0.4 0.1-0.8 0.3q-0.3 0.1-0.6 0.4q-0.3 0.2-0.6 0.5q0 0.1-0.1 0.2q0 0-0.1 0q-0.1 0-0.2 0q0 0-0.1 0q-0.1-0.1-0.2-0.1q0-0.1 0-0.2q0-0.1 0-0.1q0-0.1 0-0.2q0.3-0.4 0.7-0.7q0.4-0.3 0.8-0.5q0.5-0.3 1-0.4q0.4-0.1 0.9-0.1q0.1 0 0.2 0.1q0.1 0 0.1 0.1q0.1 0 0.1 0.1q0.1 0.1 0.1 0.1q0 0.1 0 0.1z"/>
		<path id="Layer" class="s0" d="m96.5 63.3q-0.4 0-0.8-0.2q-0.4-0.1-0.7-0.2q-0.4-0.2-0.8-0.4q-0.3-0.2-0.6-0.5c0 1.2-0.8 3.2-0.8 3.2c-3.8-1.2-6.8-8.6-7.2-11.1c-2.1 3.8-1.9 1.6-2.1 0c-0.2-2.4-0.3-4.8 0.5-7c0.8-2.3 2.7-4.2 5-4.6q0.3-0.1 0.6 0q0.4 0.1 0.7 0.2q0.3 0.1 0.5 0.4q0.3 0.2 0.4 0.4q0.2 0.3 0.3 0.6q0.1 0.3 0.2 0.6q0.1 0.2 0.2 0.5q0.1 0.3 0.1 0.6c1.1 5.9 1 12.7 4.5 17.5z"/>
		<path id="Layer" class="s4" d="m96.5 63.3q-0.4 0-0.8-0.2q-0.4-0.1-0.7-0.2q-0.4-0.2-0.8-0.4q-0.3-0.2-0.6-0.5c0 1.2-0.8 3.2-0.8 3.2c-3.8-1.2-6.8-8.6-7.2-11.1c-2.1 3.8-1.9 1.6-2.1 0c-0.2-2.4-0.3-4.8 0.5-7c0.8-2.3 2.7-4.2 5-4.6q0.3-0.1 0.6 0q0.4 0.1 0.7 0.2q0.3 0.1 0.5 0.4q0.3 0.2 0.4 0.4q0.2 0.3 0.3 0.6q0.1 0.3 0.2 0.6q0.1 0.2 0.2 0.5q0.1 0.3 0.1 0.6c1.1 5.9 1 12.7 4.5 17.5z"/>
		<path id="Layer" class="s0" d="m91.2 49.9c2.9 0.1 4.6 3.7 4.9 6.2c0.4 2.7-1.5 5-4.1 3.7q-0.7-0.3-1.4-0.8q-0.7-0.5-1.2-1.1q-0.6-0.6-1-1.3q-0.4-0.7-0.7-1.4c-0.9-2.6 0.7-5.3 3.5-5.3z"/>
		<path id="Layer" class="s5" d="m91.2 49.9c2.9 0.1 4.6 3.7 4.9 6.2c0.4 2.7-1.5 5-4.1 3.7q-0.7-0.3-1.4-0.8q-0.7-0.5-1.2-1.1q-0.6-0.6-1-1.3q-0.4-0.7-0.7-1.4c-0.9-2.6 0.7-5.3 3.5-5.3z"/>
		<path id="Layer" class="s0" d="m96.9 41.6q0.6 0.6 1 1.3q0.4 0.7 0.7 1.5q0.2 0.7 0.3 1.6q0 0.8-0.1 1.6c-0.3 2.2-3.4 5.7-3.2 5.5q0-0.1 0.1-0.2q0-0.1 0-0.2q0-0.1 0-0.2q0-0.1 0-0.2q0-0.3-0.1-0.7q0-0.4-0.1-0.7q-0.1-0.4-0.3-0.7q-0.1-0.4-0.2-0.7c-0.3 1.2-0.7 3.7-1.9 3.7c-0.5-0.9-1.1-1.7-1-2.7q-0.5 1.6-0.9 3.1c-2.4-1.4-3.9-4.7-3.4-7.4q0-0.3 0.1-0.5q0.1-0.3 0.2-0.5q0.1-0.3 0.2-0.5q0.1-0.2 0.2-0.4q0.2-0.3 0.4-0.5q0.2-0.2 0.4-0.4q0.2-0.2 0.4-0.4q0.2-0.2 0.4-0.4c1.6-1.3 3.7-2.7 5.6-1.9c0.2 0.2 1.3 0.6 1.2 0.9z"/>
		<path id="Layer" class="s4" d="m96.9 41.6q0.6 0.6 1 1.3q0.4 0.7 0.7 1.5q0.2 0.7 0.3 1.6q0 0.8-0.1 1.6c-0.3 2.2-3.4 5.7-3.2 5.5q0-0.1 0.1-0.2q0-0.1 0-0.2q0-0.1 0-0.2q0-0.1 0-0.2q0-0.3-0.1-0.7q0-0.4-0.1-0.7q-0.1-0.4-0.3-0.7q-0.1-0.4-0.2-0.7c-0.3 1.2-0.7 3.7-1.9 3.7c-0.5-0.9-1.1-1.7-1-2.7q-0.5 1.6-0.9 3.1c-2.4-1.4-3.9-4.7-3.4-7.4q0-0.3 0.1-0.5q0.1-0.3 0.2-0.5q0.1-0.3 0.2-0.5q0.1-0.2 0.2-0.4q0.2-0.3 0.4-0.5q0.2-0.2 0.4-0.4q0.2-0.2 0.4-0.4q0.2-0.2 0.4-0.4c1.6-1.3 3.7-2.7 5.6-1.9c0.2 0.2 1.3 0.6 1.2 0.9z"/>
		<path id="Layer" class="s7" d="m108.4 60.4c-3.6-0.4-5.2-1.5-5.6-4.1c7.2 0.8 9.6 1.8 9.6 1.8c0 0-0.3 2.7-4 2.3z"/>
		<path id="Layer" class="s1" d="m112.1 58q-0.1 0.3-0.2 0.4q-0.2 0.2-0.4 0.4q-0.1 0.1-0.3 0.2q-0.3 0.1-0.5 0.2q-0.8-0.1-1.6-0.3q-0.8-0.1-1.5-0.3q-0.8-0.2-1.6-0.4q-0.8-0.2-1.5-0.4q-0.3-0.1-0.5-0.2q-0.3-0.2-0.5-0.3q-0.1-0.2-0.3-0.5q-0.1-0.2-0.2-0.5q1.2 0.2 2.3 0.3q1.2 0.2 2.3 0.4q1.1 0.2 2.2 0.5q1.2 0.2 2.3 0.5z"/>
		<path id="Layer" class="s1" d="m110.8 59.2q0.1 0.1 0.2 0.2q0 0.1 0.1 0.3q0.1 0.1 0.2 0.2q-0.3 0.2-0.7 0.3q-0.3 0.2-0.7 0.2q-0.4 0.1-0.8 0.1q-0.3 0-0.7-0.1c-2.6-0.3-4.2-0.9-5-2.2q0.1-0.1 0.3-0.2q0.2-0.1 0.4-0.2q0.2-0.1 0.4-0.1q0.2-0.1 0.4-0.1q0.7 0.1 1.4 0.2q0.8 0.1 1.5 0.2q0.7 0.2 1.4 0.4q0.7 0.3 1.4 0.5q0.1 0.1 0.2 0.3z"/>
		<path id="Layer" class="s2" d="m117.1 75.4q-0.1 1.1-0.4 2.1q-0.2 1.1-0.6 2.1q-0.4 1-1 2q-0.5 0.9-1.1 1.8q-0.2 0.3-0.4 0.5c-3.9 4.9-10.9 6.5-16.7 3.9q-0.7-0.3-1.4-0.7q-0.7-0.3-1.3-0.6q-0.7-0.4-1.3-0.8q-0.7-0.4-1.3-0.8c-3.3-2.2-6.1-5.3-7.5-8.9l10.2-1.3l7-0.9l4.8 0.5z"/>
		<path id="Layer" class="s0" d="m73.5 76h56.2l1.7 17.7q0.9 9.6 2.7 19.1q1.7 9.5 4.2 18.8q2.6 9.4 5.9 18.4q3.3 9.1 7.4 17.9h-109.9c2.3-30 24.5-56 24.9-86c0-2.9 6.9-5.9 6.9-5.9z"/>
		<path id="Layer" class="s8" d="m73.5 76h56.2l1.7 17.7q0.9 9.6 2.7 19.1q1.7 9.5 4.2 18.8q2.6 9.4 5.9 18.4q3.3 9.1 7.4 17.9h-109.9c2.3-30 24.5-56 24.9-86c0-2.9 6.9-5.9 6.9-5.9z"/>
		<path id="Layer" class="s9" d="m55.4 167.8c0 0-0.6-30.9 9.6-62.8c10.3-32-2.6 9.6-0.6 46.6c0.6 10.7 3.4 16.4 3.4 16.4z"/>
		<path id="Layer" class="s9" d="m133.8 167.9c-11.4-35.8-8.1-72.1-8.1-72.1c2.4 41.1 15.8 72.2 15.8 72.2z"/>
		<path id="Layer" class="s0" d="m138 70.9q0 0 0 0q0-0.1 0-0.1q0.1 0 0.1 0q0 0 0 0z"/>
		<path id="Layer" class="s0" d="m138.8 70.5l-0.2 0.1l-0.3 0.1l-0.2 0.1q0.4-0.1 0.7-0.3z"/>
		<path id="Layer" class="s0" d="m167.5 72.1c0 11-19.7 17.9-28.5 20.4c-8.3 2.8-13.3 3.3-13.3 3.3c-0.3-2.9-6.6-20-6.6-20c0 0 3.8-1.6 6.5-1.3q1.2 0.1 2.4 0q1.2-0.1 2.3-0.4q1.2-0.2 2.3-0.7q1.1-0.4 2.1-1q0.4-0.2 0.7-0.4q0.4-0.2 0.8-0.4q0.4-0.2 0.8-0.4q0.4-0.1 0.8-0.3l0.2-0.1h0.1l0.2-0.1l0.3-0.1l0.2-0.1l0.4-0.1h0.1h0.1l0.1-0.1q0.3 0 0.6-0.1q0.3-0.1 0.6-0.2q0.3 0 0.5-0.1q0.3-0.1 0.6-0.1q0.9-0.2 1.8-0.2q0.9 0 1.8 0.1q0.9 0.1 1.7 0.3q0.9 0.2 1.7 0.6q0.3 0.1 0.6 0.2q0.4 0.1 0.7 0.1q0.4 0 0.7-0.1q0.3-0.1 0.6-0.3c0.4-0.3 0.6-0.5 0.2-0.8l-18.7-21.3l5.7-3.2c0 0 28.9 15.3 28.9 26.9z"/>
		<path id="Layer" class="s0" d="m167.5 72.1c0 11-19.7 17.9-28.5 20.4c-8.3 2.8-13.3 3.3-13.3 3.3c-0.3-2.9-6.6-20-6.6-20c0 0 3.8-1.6 6.5-1.3q1.2 0.1 2.4 0q1.2-0.1 2.3-0.4q1.2-0.2 2.3-0.7q1.1-0.4 2.1-1q0.4-0.2 0.7-0.4q0.4-0.2 0.8-0.4q0.4-0.2 0.8-0.4q0.4-0.1 0.8-0.3l0.2-0.1h0.1l0.2-0.1l0.3-0.1l0.2-0.1l0.4-0.1h0.1h0.1l0.1-0.1q0.3 0 0.6-0.1q0.3-0.1 0.6-0.2q0.3 0 0.5-0.1q0.3-0.1 0.6-0.1q0.9-0.2 1.8-0.2q0.9 0 1.8 0.1q0.9 0.1 1.7 0.3q0.9 0.2 1.7 0.6q0.3 0.1 0.6 0.2q0.4 0.1 0.7 0.1q0.4 0 0.7-0.1q0.3-0.1 0.6-0.3c0.4-0.3 0.6-0.5 0.2-0.8l-18.7-21.3l5.7-3.2c0 0 28.9 15.3 28.9 26.9z"/>
		<g id="Layer" style="opacity: .3">
			<path id="Layer" class="s1" d="m167.5 72.1c0 11-19.7 17.9-28.5 20.4c-8.3 2.8-13.3 3.3-13.3 3.3c-0.3-2.9-6.6-20-6.6-20c0 0 3.8-1.6 6.5-1.3q1.2 0.1 2.4 0q1.2-0.1 2.3-0.4q1.2-0.2 2.3-0.7q1.1-0.4 2.1-1q0.4-0.2 0.7-0.4q0.4-0.2 0.8-0.4q0.4-0.2 0.8-0.4q0.4-0.1 0.8-0.3l0.2-0.1h0.1l0.2-0.1l0.3-0.1l0.2-0.1l0.4-0.1h0.1h0.1l0.1-0.1q0.3 0 0.6-0.1q0.3-0.1 0.6-0.2q0.3 0 0.5-0.1q0.3-0.1 0.6-0.1q0.9-0.2 1.8-0.2q0.9 0 1.8 0.1q0.9 0.1 1.7 0.3q0.9 0.2 1.7 0.6q0.3 0.1 0.6 0.2q0.4 0.1 0.7 0.1q0.4 0 0.7-0.1q0.3-0.1 0.6-0.3c0.4-0.3 0.6-0.5 0.2-0.8l-18.7-21.3l5.7-3.2c0 0 28.9 15.3 28.9 26.9z"/>
		</g>
		<path id="Layer" class="s0" d="m134.4 48.9l-7.9-3.1l-4.8-6.4l6.9-1.6l6.5 3.4l3.9 4.3q0.3 0.3 0.4 0.7q0.1 0.4 0 0.7q-0.1 0.4-0.4 0.7q-0.3 0.3-0.7 0.5l-2.8 0.9q-0.1 0-0.3 0q-0.1 0-0.2 0q-0.2 0-0.3 0q-0.1 0-0.3-0.1z"/>
		<path id="Layer" class="s5" d="m134.4 48.9l-7.9-3.1l-4.8-6.4l6.9-1.6l6.5 3.4l3.9 4.3q0.3 0.3 0.4 0.7q0.1 0.4 0 0.7q-0.1 0.4-0.4 0.7q-0.3 0.3-0.7 0.5l-2.8 0.9q-0.1 0-0.3 0q-0.1 0-0.2 0q-0.2 0-0.3 0q-0.1 0-0.3-0.1z"/>
		<path id="Layer" class="s3" d="m130.3 87.2q1.5 0.7 3 1.2q1.6 0.5 3.2 0.8q1.7 0.3 3.3 0.4q1.7 0.1 3.3 0l5.4-0.3c-6.7 3.1-18.5 5.8-18.5 5.8l-0.8-8.1z"/>
		<path id="Layer" class="s0" d="m130.6 94.9c-0.1 25.8-4.8 28.2-4.6 50.4c0 0-44.6 0.2-46.1 0.2c-3.6-29.8-7.3-31.2-6.3-54.1c-0.5-7.5 3.8-14.1 8.1-15l19.6-2.6l18.9 2c4.8 0.7 9.2 4.5 10.4 19.1z"/>
		<path id="Layer" class="s10" d="m130.6 94.9c-0.1 25.8-4.8 28.2-4.6 50.4c0 0-44.6 0.2-46.1 0.2c-3.6-29.8-7.3-31.2-6.3-54.1c-0.5-7.5 3.8-14.1 8.1-15l19.6-2.6l18.9 2c4.8 0.7 9.2 4.5 10.4 19.1z"/>
		<path id="Layer" class="s0" d="m91.8 46.1c-1.4 0.2-3-0.2-4-1.2c-0.8-0.9-2.1-8.6 4.6-12.5c10.8-6.2 18.1-0.7 19.3-0.2c0.7 0.4 1.5 0.7 2.3 1.1q0.5 0.3 1 0.8q0.4 0.4 0.8 0.9q0.3 0.6 0.5 1.2q0.2 0.6 0.3 1.2c0 1.6-1.4 3.6-3 4.2c0.4-0.4 0.4-2.3 0.1-2.8q0.1 0.4 0.1 0.8q-0.1 0.3-0.2 0.7q-0.1 0.3-0.2 0.7q-0.2 0.3-0.5 0.5c-0.6 0.7-1.8 1-2.7 1c0.6-1.1 0.4-2.1 0.2-3q-0.1 0.3-0.2 0.6q-0.2 0.4-0.3 0.6q-0.2 0.3-0.4 0.6q-0.2 0.3-0.5 0.5c-0.6 0.6-1.9 1.6-2.6 1.1q0.1-0.4 0.2-0.8q0.1-0.4 0.1-0.8q0-0.4-0.1-0.8q0-0.4-0.1-0.8c-0.4 1-0.7 2.2-1.4 2.8c-0.8 0.7-1.9 1.1-2.8 0.6c0 0.1 1-1.8 0.1-2.8c-1.8-1.2-3.3 1-5.8 0.6c-1-0.2 0.6 1.1 1.8 3.7c0.3 0.7-5.2 1.4-6.6 1.5z"/>
		<path id="Layer" class="s4" d="m91.8 46.1c-1.4 0.2-3-0.2-4-1.2c-0.8-0.9-2.1-8.6 4.6-12.5c10.8-6.2 18.1-0.7 19.3-0.2c0.7 0.4 1.5 0.7 2.3 1.1q0.5 0.3 1 0.8q0.4 0.4 0.8 0.9q0.3 0.6 0.5 1.2q0.2 0.6 0.3 1.2c0 1.6-1.4 3.6-3 4.2c0.4-0.4 0.4-2.3 0.1-2.8q0.1 0.4 0.1 0.8q-0.1 0.3-0.2 0.7q-0.1 0.3-0.2 0.7q-0.2 0.3-0.5 0.5c-0.6 0.7-1.8 1-2.7 1c0.6-1.1 0.4-2.1 0.2-3q-0.1 0.3-0.2 0.6q-0.2 0.4-0.3 0.6q-0.2 0.3-0.4 0.6q-0.2 0.3-0.5 0.5c-0.6 0.6-1.9 1.6-2.6 1.1q0.1-0.4 0.2-0.8q0.1-0.4 0.1-0.8q0-0.4-0.1-0.8q0-0.4-0.1-0.8c-0.4 1-0.7 2.2-1.4 2.8c-0.8 0.7-1.9 1.1-2.8 0.6c0 0.1 1-1.8 0.1-2.8c-1.8-1.2-3.3 1-5.8 0.6c-1-0.2 0.6 1.1 1.8 3.7c0.3 0.7-5.2 1.4-6.6 1.5z"/>
		<path id="Layer" class="s0" d="m108.4 60.4c-3.6-0.4-5.2-1.5-5.6-4.1c7.2 0.8 9.6 1.8 9.6 1.8c0 0-0.3 2.7-4 2.3z"/>
		<path id="Layer" class="s4" d="m108.4 60.4c-3.6-0.4-5.2-1.5-5.6-4.1c7.2 0.8 9.6 1.8 9.6 1.8c0 0-0.3 2.7-4 2.3z"/>
		<path id="Layer" class="s1" d="m112.1 58q-0.1 0.3-0.2 0.4q-0.2 0.2-0.4 0.4q-0.1 0.1-0.3 0.2q-0.3 0.1-0.5 0.2q-0.8-0.1-1.6-0.3q-0.8-0.1-1.5-0.3q-0.8-0.2-1.6-0.4q-0.8-0.2-1.5-0.4q-0.3-0.1-0.5-0.2q-0.3-0.2-0.5-0.3q-0.1-0.2-0.3-0.5q-0.1-0.2-0.2-0.5q1.2 0.2 2.3 0.3q1.2 0.2 2.3 0.4q1.1 0.2 2.2 0.5q1.2 0.2 2.3 0.5z"/>
		<path id="Layer" class="s1" d="m110.8 59.2q0.1 0.1 0.2 0.2q0 0.1 0.1 0.3q0.1 0.1 0.2 0.2q-0.3 0.2-0.7 0.3q-0.3 0.2-0.7 0.2q-0.4 0.1-0.8 0.1q-0.3 0-0.7-0.1c-2.6-0.3-4.2-0.9-5-2.2q0.1-0.1 0.3-0.2q0.2-0.1 0.4-0.2q0.2-0.1 0.4-0.1q0.2-0.1 0.4-0.1q0.7 0.1 1.4 0.2q0.8 0.1 1.5 0.2q0.7 0.2 1.4 0.4q0.7 0.3 1.4 0.5q0.1 0.1 0.2 0.3z"/>
		<path id="Layer" class="s0" d="m77.6 134.1c0 0 9.4-5 9.4-4.4c-0.1 0.5 0.2 11.1 0.2 11.1l-10.3-0.2z"/>
		<path id="Layer" class="s0" d="m87 129.7c0 0 8.7 0.3 8.6 1.2c0 1-1 9.1-1 9.1l-7.4 0.8z"/>
		<g id="Layer" style="opacity: .7">
			<path id="Layer" class="s1" d="m95.6 130.9c0 1-1 9.1-1 9.1l-7.4 0.8l-10.3-0.2l0.7-6.5c0 0 9.4-5 9.4-4.4c0 0 8.7 0.3 8.6 1.2z"/>
		</g>
		<path id="Layer" class="s0" d="m117.1 75.4q-0.1 1.1-0.4 2.1q-0.2 1.1-0.6 2.1q-0.4 1-1 2q-0.5 0.9-1.1 1.8q-0.2 0.3-0.4 0.5c-3.9 4.9-10.9 6.5-16.7 3.9q-0.7-0.3-1.4-0.7q-0.7-0.3-1.3-0.6q-0.7-0.4-1.3-0.8q-0.7-0.4-1.3-0.8c-3.3-2.2-6.1-5.3-7.5-8.9l10.2-1.3l7-0.9l4.8 0.5z"/>
		<path id="Layer" class="s5" d="m117.1 75.4q-0.1 1.1-0.4 2.1q-0.2 1.1-0.6 2.1q-0.4 1-1 2q-0.5 0.9-1.1 1.8q-0.2 0.3-0.4 0.5c-3.9 4.9-10.9 6.5-16.7 3.9q-0.7-0.3-1.4-0.7q-0.7-0.3-1.3-0.6q-0.7-0.4-1.3-0.8q-0.7-0.4-1.3-0.8c-3.3-2.2-6.1-5.3-7.5-8.9l10.2-1.3l7-0.9l4.8 0.5z"/>
		<path id="Layer" class="s3" d="m78.2 93.9l-3.3 20.9q-0.3-1.7-0.5-3.3q-0.3-1.7-0.4-3.4q-0.2-1.7-0.2-3.4q-0.1-1.6-0.1-3.3z"/>
		<path id="Layer" class="s0" d="m55.6 116.5l22.3 15.7l-1 9.3c0 0-33.5-7.7-38.6-18.1c-2.4-4.9 0.3-10.9 4.4-16.4q0 0 0 0q0 0 0 0q0 0 0 0q0 0 0 0c4.9-8.1 9.4-12.8 12.7-15.7q1.3-1 2.4-2.1q1.2-1.1 2.3-2.2q1-1.2 2-2.5q1-1.2 1.8-2.6c5.8-9.1 18.8-5.4 18.8-5.4c-2.9 7-3 20.1-3 20.1c0 0-2.9 2.2-6 4.8c-0.1 2.1-1.4 4.7-3.9 7.7c-3.3 3.9-13.1 6.1-14.2 7.4z"/>
		<path id="Layer" class="s10" d="m55.6 116.5l22.3 15.7l-1 9.3c0 0-33.5-7.7-38.6-18.1c-2.4-4.9 0.3-10.9 4.4-16.4q0 0 0 0q0 0 0 0q0 0 0 0q0 0 0 0c4.9-8.1 9.4-12.8 12.7-15.7q1.3-1 2.4-2.1q1.2-1.1 2.3-2.2q1-1.2 2-2.5q1-1.2 1.8-2.6c5.8-9.1 18.8-5.4 18.8-5.4c-2.9 7-3 20.1-3 20.1c0 0-2.9 2.2-6 4.8c-0.1 2.1-1.4 4.7-3.9 7.7c-3.3 3.9-13.1 6.1-14.2 7.4z"/>
		<path id="Layer" class="s0" d="m75 75.8q-0.8 0.1-1.5 0.2q-0.8 0.1-1.5 0.3q-0.8 0.2-1.5 0.5q-0.7 0.2-1.4 0.5c-0.3-2 2.2-4.6 4.2-5c1.9-0.3 4.6 0.7 6.6 1.4c2.4-1.9 6.6-1.8 9.1 0c0.7-0.8 2-0.8 2.9-0.3c0.9 0.6 1.4 1.5 1.9 2.5c1.5 3.4 2.4 8.8 2.4 11.6q-3.3-1.2-6.4-2.7q-3.1-1.4-6.1-3.1q-3-1.7-5.8-3.7q-2.8-2-5.5-4.2c2.6 2.1 2 1.4 2.6 2z"/>
		<path id="Layer" class="s8" d="m75 75.8q-0.8 0.1-1.5 0.2q-0.8 0.1-1.5 0.3q-0.8 0.2-1.5 0.5q-0.7 0.2-1.4 0.5c-0.3-2 2.2-4.6 4.2-5c1.9-0.3 4.6 0.7 6.6 1.4c2.4-1.9 6.6-1.8 9.1 0c0.7-0.8 2-0.8 2.9-0.3c0.9 0.6 1.4 1.5 1.9 2.5c1.5 3.4 2.4 8.8 2.4 11.6q-3.3-1.2-6.4-2.7q-3.1-1.4-6.1-3.1q-3-1.7-5.8-3.7q-2.8-2-5.5-4.2c2.6 2.1 2 1.4 2.6 2z"/>
		<path id="Layer" class="s0" d="m110.4 87q0.1-1.2 0-2.4q0-1.2-0.2-2.5q-0.2-1.2-0.4-2.4q-0.3-1.1-0.7-2.3c-0.4-1.2-1-2.5-2.2-3.1c0.6-0.6 1.1-1.1 1.9-1.1q0.3 0 0.6 0.1q0.3 0.1 0.5 0.2q0.3 0.1 0.5 0.3q0.3 0.2 0.5 0.4c1.6-1.1 4-0.8 5.6 0.3q0.8-0.4 1.8-0.6q0.9-0.2 1.8-0.2q1 0 1.9 0.2q0.9 0.2 1.8 0.6c-3.2 5.3-7.9 9.8-13.4 12.5z"/>
		<path id="Layer" class="s8" d="m110.4 87q0.1-1.2 0-2.4q0-1.2-0.2-2.5q-0.2-1.2-0.4-2.4q-0.3-1.1-0.7-2.3c-0.4-1.2-1-2.5-2.2-3.1c0.6-0.6 1.1-1.1 1.9-1.1q0.3 0 0.6 0.1q0.3 0.1 0.5 0.2q0.3 0.1 0.5 0.3q0.3 0.2 0.5 0.4c1.6-1.1 4-0.8 5.6 0.3q0.8-0.4 1.8-0.6q0.9-0.2 1.8-0.2q1 0 1.9 0.2q0.9 0.2 1.8 0.6c-3.2 5.3-7.9 9.8-13.4 12.5z"/>
		<path id="Layer" class="s6" d="m122.7 105.7c0 6.1-8.7 16.9-19.3 16.9c-10.7 0-19.3-10.8-19.3-16.9c0-6.1 8.6-11 19.3-11c10.6 0 19.3 4.9 19.3 11z"/>
		<path id="Layer" class="s0" d="m120.1 106.2c0 5-7.1 14-15.9 14c-8.8 0-15.9-9-15.9-14c0-5 7.1-9.1 15.9-9.1c8.8 0 15.9 4.1 15.9 9.1z"/>
		<path id="Layer" class="s6" d="m120.1 106.2c0 5-7.1 14-15.9 14c-8.8 0-15.9-9-15.9-14c0-5 7.1-9.1 15.9-9.1c8.8 0 15.9 4.1 15.9 9.1z"/>
		<path id="Layer" class="s1" d="m79.9 145.5h46.1v7.5h-46.1z"/>
		<path id="Layer" class="s0" d="m79.9 153h46.1l1.5 14.9h-52l4.4-14.9z"/>
		<path id="Layer" class="s9" d="m79.9 153h46.1l1.5 14.9h-52l4.4-14.9z"/>
		<path id="Layer" class="s7" d="m100.3 145h13.8v8.3h-13.8z"/>
		<path id="Layer" class="s5" d="m100.3 145h13.8v8.3h-13.8z"/>
		<path id="Layer" class="s5" d="m106.1 145h3.1l-4.2 8.3h-3l4.1-8.3z"/>
		<path id="Layer" class="s5" d="m110.5 145h2.3l-4.2 8.3h-2.2l4.1-8.3z"/>
		<path id="Layer" class="s9" d="m118.7 47.4c-0.1 1.2-1 2.7-1.8 3.8q0 0.9 0 1.7q0 0.9 0 1.7q-0.1 0.9-0.2 1.8q-0.1 0.8-0.2 1.7q-0.4 1.9-1.4 3.7q-1 1.8-2.4 3.2q-1.6 1.3-3.4 2.1q-1.9 0.8-3.9 1q0 0.3 0 0.7q0 0.3 0 0.7q0 0.3 0 0.6q0 0.4 0 0.7q0 0.5 0.1 0.9q0 0.4 0.1 0.9q0.1 0.4 0.2 0.8q0.2 0.4 0.3 0.9l11 1.1q-0.1 1.1-0.4 2.1q-0.2 1.1-0.6 2.1q-0.4 1-1 2q-0.5 0.9-1.2 1.8q-0.1 0.2-0.4 0.5c-3.8 4.9-10.8 6.4-16.6 3.9q-0.7-0.3-1.4-0.7q-0.7-0.3-1.3-0.7q-0.7-0.3-1.3-0.7q-0.7-0.4-1.3-0.8c-3.3-2.2-6.1-5.3-7.5-8.9l10.2-1.3c0.6-1.5 0.7-3.8 0.9-5.6c0.2-1.3-0.1-3.9-0.6-6.4q-0.1-0.1-0.2-0.2q-0.2 0-0.3-0.1q-0.2-0.1-0.3-0.2q-0.1-0.1-0.3-0.2c0 1.2-0.8 3.2-0.8 3.2c-3.7-1.2-6.8-8.7-7.2-11.1c-2 3.8-1.8 1.6-2 0c-0.2-2.4-0.3-4.8 0.5-7.1q0.2-0.6 0.5-1.1q0.3-0.6 0.8-1.1q0.4-0.5 0.9-0.9q0.4-0.5 1-0.8c-0.4-2.7 0.2-7.8 5.2-10.7c10.8-6.2 18.1-0.7 19.2-0.2c0.8 0.4 1.6 0.7 2.3 1.1q0.6 0.3 1 0.8q0.5 0.4 0.8 0.9q0.3 0.5 0.6 1.1q0.2 0.6 0.2 1.3c0.1 1.1-0.5 2.3-1.4 3.1c3.7 0.5 3.9 4.9 3.6 6.9z"/>
		<path id="Layer" class="s9" d="m111 40l-0.1-0.3q0-0.1 0-0.2q0-0.1 0-0.2q0-0.1 0-0.2q0-0.1 0-0.3q0 0.2 0.1 0.3q0 0.2 0 0.3q0 0.1 0 0.3q0 0.1 0 0.3z"/>
	</g>
	<g id="freepik--character-1--inject-2">
		<path id="Layer" class="s2" d="m80.9 155.9q-0.5 0.2-0.9 0.3q-0.4 0.1-0.8 0.2q-0.5 0.1-0.9 0.2q-0.4 0.1-0.9 0.2q-0.2 0.1-0.5 0.1q-0.9 0.1-1.6 0.1c-7.7 0.4-7.9-6-8.1-9.3q-0.1-1.7-0.1-3.3q0-1.7 0-3.3q0-1.7 0.1-3.3q0.1-1.7 0.3-3.3c0.5-6.1 1.5-12.5 3-17.2c2.2-6.9 5.6-7.6 8.6-7.7q0.8 0 1.6 0c0 0-0.4 2-0.6 3.9l-1.1 8.2l-1.6 11.6l-0.3 1.8v0.1l-0.9 6.2l-0.2 1.4c-0.1 1-0.1 2.3 0.9 3.1q0.1 0 0.1 0.1q0.1 0 0.1 0.1q0.1 0 0.2 0q0 0 0.1 0.1c0.7 0.3 1.7 0.4 3.1 0.2l0.2 4.1v0.8v1.2l0.1 2.3z"/>
		<path id="Layer" class="s0" d="m60.9 128.8c2.8-2.9 5.6-5.8 7.8-9.4c1.8-3 2-7.3 4.8-9c2-1.2 4.7-1.1 7.2-1.3c0.1 8.6-0.9 17.2-1.6 25.8c-3.1 0.3-5.7 0.4-8.8 0c-3-0.5-4.8-0.2-7-2.7c-1.3-1.5-1.4-1.7-2.4-3.4z"/>
		<g id="Layer" style="opacity: .6">
			<path id="Layer" class="s11" d="m60.9 128.8c2.8-2.9 5.6-5.8 7.8-9.4c1.8-3 2-7.3 4.8-9c2-1.2 4.7-1.1 7.2-1.3c0.1 8.6-0.9 17.2-1.6 25.8c-3.1 0.3-5.7 0.4-8.8 0c-3-0.5-4.8-0.2-7-2.7c-1.3-1.5-1.4-1.7-2.4-3.4z"/>
		</g>
		<path id="Layer" class="s3" d="m79 121.7l1.1 13.5h-5.4l4.3-13.5z"/>
		<path id="Layer" class="s0" d="m120.2 137c-0.4 2.2-1 4.4-1.6 7.2q-0.2 0.8-0.4 1.8q-0.3 1.4-0.6 2.9c-0.2 1.2-0.3 2.5-0.5 3.9q-0.3 1.9-0.5 4q-0.1 1-0.2 2q-0.1 2-0.3 4.2c-0.1 1.6-0.2 3.2-0.2 5c-1.3-0.1-39.9 0-39.9 0c0.2-2.6 0.4-5 0.6-7.3q0.1-2 0.3-3.8v-0.1q0-0.5 0-1.1q0.1-1.4 0.2-2.8c0.1-2.3 0.2-4.5 0.3-6.7q0-0.2 0-0.3q0-2.1 0-4.3q0-3.1 0-6.5q0 0 0-0.1q0-0.9-0.1-1.8q0-2.7-0.2-5.7q-0.1-3.8-0.4-8.1c-0.2-3.4 0-7.9 2.3-9.8q0.1 0 0.2-0.1q0.1-0.1 0.2-0.1q0.1-0.1 0.2-0.2q0.1 0 0.2-0.1q0.1 0 0.3-0.1q0.1-0.1 0.3-0.1q0.1-0.1 0.3-0.1q0.2 0 0.3-0.1l12.1-1.8l4.2-0.7l6.3 1.2l13.6 2.7q0.1 0 0.1 0q0.1 0 0.1 0q0.1 0.1 0.2 0.1q0 0 0.1 0q0.3 0.1 0.6 0.2q0.3 0.2 0.6 0.4q0.3 0.2 0.5 0.4q0.3 0.3 0.5 0.5c1.4 1.9 1.7 5.2 1.4 9.7c0.4 7.7-0.2 11.8-1.1 15.6z"/>
		<path id="Layer" class="s12" d="m120.2 137c-0.4 2.2-1 4.4-1.6 7.2q-0.2 0.8-0.4 1.8q-0.3 1.4-0.6 2.9c-0.2 1.2-0.3 2.5-0.5 3.9q-0.3 1.9-0.5 4q-0.1 1-0.2 2q-0.1 2-0.3 4.2c-0.1 1.6-0.2 3.2-0.2 5c-1.3-0.1-39.9 0-39.9 0c0.2-2.6 0.4-5 0.6-7.3q0.1-2 0.3-3.8v-0.1q0-0.5 0-1.1q0.1-1.4 0.2-2.8c0.1-2.3 0.2-4.5 0.3-6.7q0-0.2 0-0.3q0-2.1 0-4.3q0-3.1 0-6.5q0 0 0-0.1q0-0.9-0.1-1.8q0-2.7-0.2-5.7q-0.1-3.8-0.4-8.1c-0.2-3.4 0-7.9 2.3-9.8q0.1 0 0.2-0.1q0.1-0.1 0.2-0.1q0.1-0.1 0.2-0.2q0.1 0 0.2-0.1q0.1 0 0.3-0.1q0.1-0.1 0.3-0.1q0.1-0.1 0.3-0.1q0.2 0 0.3-0.1l12.1-1.8l4.2-0.7l6.3 1.2l13.6 2.7q0.1 0 0.1 0q0.1 0 0.1 0q0.1 0.1 0.2 0.1q0 0 0.1 0q0.3 0.1 0.6 0.2q0.3 0.2 0.6 0.4q0.3 0.2 0.5 0.4q0.3 0.3 0.5 0.5c1.4 1.9 1.7 5.2 1.4 9.7c0.4 7.7-0.2 11.8-1.1 15.6z"/>
		<path id="Layer" class="s2" d="m104.1 108.1c2.4 1.8 1.4 4.5-0.6 6.7c-4.1 4.6-8.4 6-8.4 6c0 0-10.6-7.7-3.2-12.5c1.3-0.8 1.8-2.7 1.9-4.6q0-0.6 0-1.2q0-0.5 0-1.1q0-0.5-0.1-1.1q0-0.6-0.1-1.1q0-0.6-0.1-1.1q-0.1-0.6-0.3-1.1l11.4-4.6c-1.3 1.9-2.2 7.8-2 9.8c0.3 2.1 0.4 5.1 1.5 5.9z"/>
		<path id="Layer" class="s3" d="m93.8 103.7q0.1-0.6 0.1-1.2q0-0.5 0-1.1q-0.1-0.5-0.1-1.1q-0.1-0.6-0.1-1.1q-0.1-0.6-0.2-1.1l8.7-1.7c-1.8 1.8-4.4 5.5-8.4 7.3z"/>
		<path id="Layer" class="s7" d="m84.8 78c1.7-0.5 3.4 0.5 4.8 1.6q0.2 0.2 0.3 0.3q0.2 0.2 0.4 0.4q0.2 0.2 0.3 0.4q0.2 0.2 0.3 0.4q0.1 0.1 0.2 0.3q0.1 0.2 0.2 0.4q0.1 0.3 0.1 0.5q0.1 0.2 0.1 0.4q0.2 0.9 0 1.9q-0.1 0.9-0.5 1.8q-0.4 0.8-1 1.5q-0.6 0.7-1.4 1.3q-0.4-1.4-0.7-2.7c0 0.8-0.5 1.5-0.9 2.3c-1.1 0-1.4-2.2-1.6-3.2q-0.2 0.3-0.3 0.6q-0.1 0.3-0.2 0.6q-0.1 0.3-0.1 0.6q-0.1 0.3-0.1 0.6q0 0.1 0 0.2q0 0.1 0 0.2q0 0 0.1 0.1q0 0.1 0 0.2c0.2 0.2-2.5-2.9-2.8-4.8c-0.3-1.8-0.5-5 2.8-5.9z"/>
		<path id="Layer" class="s2" d="m92.2 72.1q1.7-0.6 3.5-0.5q1.8 0 3.5 0.7q1.7 0.6 3.1 1.8q1.4 1.2 2.3 2.8q0.1 0.2 0.2 0.4q0.1 0.3 0.2 0.5q0.1 0.2 0.2 0.4q0.1 0.2 0.2 0.5q0.2 0.5 0.3 1.1q0.1 0.6 0.2 1.1q0 0.6 0 1.2q0 0.6-0.1 1.2q-0.1 1.4-0.3 2.8c-0.6 5.8-1.2 9.6-4.6 12.7c-6.1 5.5-15.2 1.5-16.6-6.2c-1.3-6.8 0.3-17.9 7.9-20.5z"/>
		<path id="Layer" class="s7" d="m91.7 81.8q0 0 0 0q-0.1 0-0.1 0q0 0 0-0.1q0 0 0 0q-0.1 0-0.1-0.1q0-0.1 0-0.2q0 0 0-0.1q0.1 0 0.1-0.1q0.4-0.2 0.8-0.4q0.3-0.2 0.8-0.3q0.4 0 0.8 0q0.4 0 0.8 0.2q0.1 0 0.1 0q0.1 0.1 0.1 0.2q0.1 0 0.1 0.1q0 0.1-0.1 0.1q0 0.1-0.1 0.1q0 0.1-0.1 0.1q0 0.1-0.1 0.1q-0.1 0-0.1-0.1q-0.4-0.1-0.7-0.1q-0.3 0-0.7 0q-0.3 0.1-0.6 0.2q-0.3 0.2-0.6 0.4q0 0-0.1 0q0 0 0 0q-0.1 0-0.1 0q-0.1 0-0.1 0z"/>
		<path id="Layer" class="s7" d="m87.9 82.4q0 0 0 0q0 0.1 0 0.1q0 0 0 0q0 0.1 0 0.2q0 0-0.1 0.1q0 0-0.1 0.1q0 0-0.1 0q-0.4 0.1-0.9 0q-0.4 0-0.8-0.2q-0.4-0.1-0.8-0.3q-0.4-0.3-0.7-0.6q0-0.1 0-0.1q0-0.1 0-0.2q0 0 0-0.1q0.1-0.1 0.1-0.1q0.1-0.1 0.1-0.1q0.1 0 0.2 0q0 0 0.1 0.1q0.1 0 0.1 0q0.3 0.3 0.5 0.5q0.3 0.2 0.7 0.3q0.3 0.1 0.6 0.1q0.4 0.1 0.7 0q0.1 0 0.1 0q0.1 0 0.1 0q0 0.1 0.1 0.1q0 0 0 0.1q0.1 0 0.1 0z"/>
		<path id="Layer" class="s13" d="m89.2 90.4q-0.4 0-0.8 0q-0.4-0.1-0.8-0.2q-0.4-0.2-0.7-0.4q-0.4-0.2-0.7-0.4c1.1-1.2 2.5-2.5 3.3-3.9z"/>
		<path id="Layer" class="s7" d="m86.5 85.9q-0.3 0-0.5-0.1q-0.2 0-0.4-0.1q-0.2-0.1-0.4-0.3q-0.1-0.1-0.3-0.3q0-0.1 0-0.1q0-0.1 0-0.2q0.1 0 0.2 0q0 0 0.1 0c0.5 0.5 1.1 1 1.9 0.5q0.1 0 0.1 0q0 0 0.1 0q0 0 0.1 0q0 0 0 0.1q0 0 0 0q0 0.1 0 0.1q0 0.1 0 0.1q0 0-0.1 0q-0.1 0.1-0.2 0.2q-0.1 0-0.2 0q-0.1 0.1-0.2 0.1q-0.1 0-0.2 0z"/>
		<path id="Layer" class="s7" d="m93.4 92.3q-0.4 0.3-0.9 0.5q-0.4 0.3-1 0.4q-0.5 0.1-1 0.2q-0.5 0-1.1-0.1q0 0 0 0q-0.1 0-0.1-0.1q0 0 0 0q0 0 0-0.1q0 0 0 0q0-0.1 0-0.1q0 0 0.1 0q0 0 0 0q0.6 0 1.2 0q0.6-0.1 1.1-0.3q0.6-0.1 1.1-0.4q0.5-0.3 0.9-0.7q0-0.1 0-0.1q0.1 0 0.1 0q0 0 0.1 0q0 0 0 0.1q0.1 0 0.1 0q0 0.1 0 0.1q0 0 0 0.1q0 0-0.1 0q-0.2 0.3-0.5 0.5z"/>
		<path id="Layer" class="s7" d="m105.4 82.1q0.1-0.3 0.1-0.5q0.1-0.3 0.2-0.6q0-0.2 0.2-0.5q0.1-0.2 0.2-0.4q0.2-0.3 0.4-0.4q0.2-0.2 0.4-0.3q0.3-0.2 0.6-0.2q0.3-0.1 0.5 0c2 0.3 3.6 2 4.3 3.9c0.7 1.9 0.7 4.1 0.5 6.1c-0.2 1.4 0 3.3-1.8 0c-0.4 2.1-3 8.6-6.2 9.6c0 0-0.7-1.7-0.7-2.7q-0.3 0.2-0.6 0.4q-0.3 0.1-0.6 0.3q-0.3 0.1-0.7 0.2q-0.3 0.1-0.7 0.2c3-4.2 3-10.1 3.9-15.1z"/>
		<path id="Layer" class="s2" d="m109.1 90.1q-0.2 0.7-0.6 1.3q-0.3 0.6-0.8 1.1q-0.5 0.5-1 0.9q-0.6 0.5-1.3 0.8c-2.2 1-3.8-0.9-3.5-3.3c0.2-2.1 1.7-5.2 4.2-5.3c2.5 0 3.8 2.3 3 4.5z"/>
		<path id="Layer" class="s3" d="m119 124.9l-0.8 34c0 0-4.1-4.2-6.2-12.3c-2-8.2 0.9-21.7 0.9-21.7z"/>
		<path id="Layer" class="s3" d="m118.2 158.9q-0.2 0-0.4 0q-0.2 0.1-0.4 0.1q-0.3-0.1-0.5-0.1q-0.2 0-0.4-0.1q-0.2 2-0.4 4.3c-2.3 1.2-12.9-2.5-22.3-6.3c-2-0.8-4-1.6-5.8-2.4q-1-0.4-1.9-0.8q-1.8-0.8-3.3-1.4q-1.2-0.6-2.1-1c-1.2-0.5-1.9-0.8-1.9-0.8l1.9 0.1l14.9 1l3.9 0.2l0.7 0.1l4.8 0.3l3.3 0.2h0.1l3.2 0.2l2.6 0.2l2.9 0.1l1.1 0.1c0 0 0.1 0.8 0.1 2.2c0 1 0 2.3-0.1 3.8z"/>
		<path id="Layer" class="s2" d="m124.4 137.1c-0.6 6.3-1.5 12.4-2.2 16.5c-0.5 2.8-2.1 4.8-4 5.3q-0.2 0-0.4 0q-0.2 0.1-0.4 0.1q-0.3 0-0.5-0.1q-0.2 0-0.4-0.1q-0.2 0-0.3-0.1l-14.3-3.7h-0.1l-1.6-0.4l0.1-2.8v-0.3v-1.1v-3.5l1.9 0.1l9.5 0.5q0.1 0 0.1 0q0.1 0 0.2 0q0 0 0.1 0q0.1 0 0.2 0c0.8-0.2 1.5-1.1 1.6-2.4l0.2-2.7l0.4-6.1l0.7-11.5l0.7-10.6q0.1-0.4 0.1-0.8q0.1-0.5 0.1-0.9q0.1-0.4 0.2-0.8q0.1-0.5 0.2-0.9q0.4 0 0.9 0.1q0.4 0.1 0.8 0.2q0.5 0.1 0.9 0.3q0.4 0.2 0.8 0.4c2.2 1.2 4.7 3.7 5 8.9c0.4 4.4 0.1 10.4-0.5 16.4z"/>
		<path id="Layer" class="s2" d="m107.2 156.1l-21-4.1q-0.2 0-0.4-0.1q-0.3 0-0.5 0q-0.2-0.1-0.4 0q-0.2 0-0.5 0l-5.9 1q-0.5 0.1-0.9 0.1q-0.5-0.1-1-0.2q-0.4-0.2-0.8-0.5q-0.4-0.2-0.8-0.6l-2.8-3.2q-0.5-0.6-0.7-1.3q-0.3-0.7-0.2-1.5q0.1-0.8 0.4-1.4q0.4-0.7 1-1.2l1-0.8q0.5-0.4 1.1-0.7q0.6-0.2 1.2-0.2q0.6 0 1.2 0.2q0.6 0.2 1.1 0.5q0.3 0.2 0.6 0.4q0.3 0.1 0.6 0.2q0.3 0.1 0.6 0.2q0.3 0 0.6 0h0.4q0.5 0 1.1 0.1q0.6 0.2 1.1 0.5q0.5 0.4 0.8 0.8q0.4 0.5 0.6 1l0.3 0.9l17.2 0.7z"/>
		<path id="Layer" class="s14" d="m71.6 147.6q-0.2-0.6-0.3-1.2q-0.1-0.6 0.1-1.2q0.1-0.7 0.5-1.2q0.3-0.5 0.8-0.9l1-0.9q0.5-0.4 1.1-0.6q0.6-0.2 1.2-0.2q0.6 0 1.2 0.2q0.6 0.2 1.1 0.5q0.3 0.2 0.6 0.4q0.3 0.1 0.6 0.2q0.3 0.1 0.6 0.1q0.3 0.1 0.6 0.1h0.4q0.5 0 1.1 0.1q0.6 0.2 1.1 0.5q0.5 0.4 0.8 0.8q0.4 0.5 0.6 1l0.3 0.9q-1.5 0.2-3 0.5c-1.6 0.3-8.4 1.1-10.4 0.9z"/>
		<path id="Layer" class="s3" d="m113.8 151.8q-0.3 0.1-0.5 0.2q-0.3 0.1-0.6 0.2q-0.2 0.1-0.5 0.2q-0.3 0-0.6 0.1c-1.4 0.4-3.3 0.9-5.5 1.5c-1.4 0.3-2.8 0.7-4.3 1c-2.5 0.6-5.2 1.2-7.9 1.9c-7.1 1.6-14 3.1-17.3 3.8q0.2-1.9 0.3-3.8q-0.8 0.1-1.6 0.1l0.1-0.9l1.5-0.4l3.9-0.9l5.3-1.2l3.9-0.8l5.6-1.3l4.7-1.1l3.4-0.8l2.6-0.5c0 0 4.7 0.5 6.9 1.2c1.2 0.4 1.7 0.9 0.6 1.5z"/>
		<path id="Layer" class="s2" d="m69.7 146l32.2-0.6q0.2 0 0.5 0q0.2-0.1 0.4-0.1q0.2-0.1 0.4-0.2q0.2-0.1 0.4-0.2l5.1-3.2q0.4-0.2 0.9-0.4q0.4-0.1 0.9-0.1q0.5-0.1 1 0q0.5 0.1 0.9 0.4l3.8 1.8q0.7 0.4 1.2 1q0.5 0.6 0.7 1.3q0.2 0.7 0.2 1.5q-0.1 0.8-0.5 1.4l-0.6 1.2q-0.3 0.6-0.8 1q-0.4 0.4-1 0.7q-0.6 0.2-1.2 0.3q-0.7 0-1.3-0.2c-0.8-0.2-6 0.7-7.1-0.5l-0.6-0.7l-25.7 6q-0.7 0.2-1.4 0.3q-0.7 0.1-1.3 0.2q-0.7 0.1-1.4 0.1q-0.7 0-1.4-0.1z"/>
		<path id="Layer" class="s0" d="m133 135.3q-0.4 0.2-0.7 0.4q-0.4 0.2-0.7 0.4q-0.4 0.1-0.8 0.2q-0.4 0.1-0.8 0.2c-6.9 1.2-11.4 0.6-17-0.4c-0.9-9.3-0.7-16.5 1.1-21.7c0.6-1.7 2.3-4.2 4.1-4.2c7.8 0.4 9.1 8.1 10 11.7q0.4 1.8 0.9 3.5q0.5 1.7 1.1 3.3q0.6 1.7 1.3 3.3q0.7 1.7 1.5 3.3z"/>
		<path id="Layer" class="s12" d="m133 135.3q-0.4 0.2-0.7 0.4q-0.4 0.2-0.7 0.4q-0.4 0.1-0.8 0.2q-0.4 0.1-0.8 0.2c-6.9 1.2-11.4 0.6-17-0.4c-0.9-9.3-0.7-16.5 1.1-21.7c0.6-1.7 2.3-4.2 4.1-4.2c7.8 0.4 9.1 8.1 10 11.7q0.4 1.8 0.9 3.5q0.5 1.7 1.1 3.3q0.6 1.7 1.3 3.3q0.7 1.7 1.5 3.3z"/>
		<path id="Layer" class="s7" d="m99.8 81.9c1-2.5 2.4-3.7 1.6-3.5c-2.3 0.4-3.7-1.5-5.3-0.3c-0.8 1 0.2 2.7 0.2 2.6c-0.8 0.4-1.8 0.2-2.5-0.4c-0.7-0.6-1-1.7-1.4-2.5q-0.1 0.4-0.1 0.7q0 0.4 0 0.7q0 0.4 0.1 0.8q0.1 0.3 0.2 0.6c-0.6 0.6-1.8-0.3-2.4-0.8q-0.2-0.2-0.4-0.4q-0.2-0.3-0.4-0.5q-0.1-0.3-0.3-0.6q-0.1-0.3-0.2-0.6c-0.2 0.9-0.3 1.8 0.3 2.7c-0.8 0.1-1.9-0.1-2.5-0.7q-0.2-0.2-0.4-0.5q-0.2-0.3-0.3-0.6q-0.1-0.3-0.1-0.7q-0.1-0.3 0-0.6c-0.2 0.4-0.2 2.2 0.2 2.5c-1.4-0.4-2.9-2.2-2.9-3.8q0.1-0.5 0.2-1.1q0.2-0.5 0.5-1q0.3-0.5 0.7-1q0.4-0.4 0.8-0.7c0.7-0.4 1.4-0.7 2-1.1c1.1-0.5 7.4-5.8 17.4-0.6c6.2 3.3 5.4 10.4 4.7 11.2c-0.9 1-2.3 1.4-3.6 1.3c-1.3 0-6.3-0.4-6.1-1.1z"/>
		<path id="Layer" class="s7" d="m102.3 77.7c1.6-0.7 3.4 0.4 4.8 1.6q0.2 0.1 0.3 0.3q0.2 0.2 0.4 0.3q0.2 0.2 0.3 0.4q0.2 0.2 0.3 0.4q0.2 0.2 0.2 0.4q0.1 0.2 0.2 0.4q0.1 0.2 0.2 0.4q0 0.2 0 0.5q0.2 0.9 0 1.8q-0.1 1-0.5 1.8q-0.4 0.9-1 1.6q-0.6 0.7-1.4 1.2q-0.4-1.3-0.7-2.7c0 0.9-0.5 1.6-0.9 2.4c-1.1-0.1-1.4-2.2-1.6-3.3q-0.2 0.3-0.3 0.6q-0.1 0.3-0.2 0.6q-0.1 0.3-0.1 0.7q-0.1 0.3-0.1 0.6q0 0.1 0 0.2q0 0 0 0.1q0 0.1 0.1 0.2q0 0.1 0 0.1c0.2 0.2-2.5-2.8-2.8-4.7q-0.1-0.7 0-1.4q0-0.7 0.3-1.4q0.2-0.7 0.5-1.3q0.4-0.6 0.9-1.1c-0.1-0.3 0.8-0.6 1.1-0.7z"/>
		<ellipse id="Layer" class="s7" cx="93.8" cy="84.4" rx=".7" ry="1.1"/>
	</g>
	<g id="freepik--Sparkles--inject-2">
		<path id="Layer" class="s0" d="m32.8 141.5q-0.1-0.4-0.1-0.7q-0.1-0.3-0.1-0.7q-0.1-0.3-0.1-0.7c-0.4-3.1-2.2-5.5-4.5-5.9l-1.7-0.4c0 0 2.6 0 3.7-0.7c2.3-1.6 3-6.4 3-6.4c0 0 0.5 4.8 2.8 6.4c1.1 0.7 3.7 0.7 3.7 0.7l-1.7 0.4c-2.3 0.4-4.1 2.8-4.5 5.9q0 0.4 0 0.7q-0.1 0.4-0.1 0.7q-0.1 0.3-0.1 0.7q-0.1 0.3-0.2 0.7q-0.1-0.4-0.1-0.7z"/>
		<g id="Layer" style="opacity: .7">
			<path id="Layer" class="s1" d="m32.8 141.5q-0.1-0.4-0.1-0.7q-0.1-0.3-0.1-0.7q-0.1-0.3-0.1-0.7c-0.4-3.1-2.2-5.5-4.5-5.9l-1.7-0.4c0 0 2.6 0 3.7-0.7c2.3-1.6 3-6.4 3-6.4c0 0 0.5 4.8 2.8 6.4c1.1 0.7 3.7 0.7 3.7 0.7l-1.7 0.4c-2.3 0.4-4.1 2.8-4.5 5.9q0 0.4 0 0.7q-0.1 0.4-0.1 0.7q-0.1 0.3-0.1 0.7q-0.1 0.3-0.2 0.7q-0.1-0.4-0.1-0.7z"/>
		</g>
		<path id="Layer" class="s0" d="m147.1 106.9q-0.1-0.3-0.1-0.6q-0.1-0.3-0.1-0.6q0-0.3-0.1-0.6c-0.3-2.6-1.9-4.7-3.9-5.1l-1.4-0.3c0 0 2.3 0 3.2-0.7c2-1.4 2.5-5.5 2.5-5.5c0 0 0.5 4.1 2.5 5.5c0.9 0.7 3.2 0.7 3.2 0.7l-1.4 0.3c-2 0.4-3.6 2.5-3.9 5.1q-0.1 0.3-0.1 0.6q0 0.3-0.1 0.6q0 0.3-0.1 0.6q0 0.3-0.1 0.6q-0.1-0.3-0.1-0.6z"/>
		<g id="Layer" style="opacity: .7">
			<path id="Layer" class="s1" d="m147.1 106.9q-0.1-0.3-0.1-0.6q-0.1-0.3-0.1-0.6q0-0.3-0.1-0.6c-0.3-2.6-1.9-4.7-3.9-5.1l-1.4-0.3c0 0 2.3 0 3.2-0.7c2-1.4 2.5-5.5 2.5-5.5c0 0 0.5 4.1 2.5 5.5c0.9 0.7 3.2 0.7 3.2 0.7l-1.4 0.3c-2 0.4-3.6 2.5-3.9 5.1q-0.1 0.3-0.1 0.6q0 0.3-0.1 0.6q0 0.3-0.1 0.6q0 0.3-0.1 0.6q-0.1-0.3-0.1-0.6z"/>
		</g>
		<path id="Layer" class="s0" d="m66.5 61.6c-0.5-3.9-2.8-6.9-5.7-7.5l-2.1-0.5c0 0 3.3 0 4.7-0.9c2.9-2.1 3.7-8.1 3.7-8.1c0 0 0.7 6 3.6 8.1c1.4 0.9 4.7 0.9 4.7 0.9l-2.1 0.5c-2.9 0.6-5.2 3.6-5.7 7.5c-0.2 1.9-0.5 3.4-0.5 3.5c-0.1-0.1-0.3-1.6-0.6-3.5z"/>
		<g id="Layer" style="opacity: .7">
			<path id="Layer" class="s1" d="m66.5 61.6c-0.5-3.9-2.8-6.9-5.7-7.5l-2.1-0.5c0 0 3.3 0 4.7-0.9c2.9-2.1 3.7-8.1 3.7-8.1c0 0 0.7 6 3.6 8.1c1.4 0.9 4.7 0.9 4.7 0.9l-2.1 0.5c-2.9 0.6-5.2 3.6-5.7 7.5c-0.2 1.9-0.5 3.4-0.5 3.5c-0.1-0.1-0.3-1.6-0.6-3.5z"/>
		</g>
		<path id="Layer" class="s0" d="m158.4 148.3c-0.5-4-2.8-7-5.7-7.6l-2.1-0.4c0 0 3.3 0 4.7-1c2.9-2 3.7-8.1 3.7-8.1c0 0 0.7 6.1 3.6 8.1c1.4 1 4.7 1 4.7 1l-2.1 0.4c-2.9 0.6-5.2 3.6-5.7 7.6c-0.3 1.8-0.5 3.4-0.6 3.4c0 0-0.3-1.6-0.5-3.4z"/>
		<g id="Layer" style="opacity: .7">
			<path id="Layer" class="s1" d="m158.4 148.3c-0.5-4-2.8-7-5.7-7.6l-2.1-0.4c0 0 3.3 0 4.7-1c2.9-2 3.7-8.1 3.7-8.1c0 0 0.7 6.1 3.6 8.1c1.4 1 4.7 1 4.7 1l-2.1 0.4c-2.9 0.6-5.2 3.6-5.7 7.6c-0.3 1.8-0.5 3.4-0.6 3.4c0 0-0.3-1.6-0.5-3.4z"/>
		</g>
		<path id="Layer" class="s0" d="m125.2 65.6q-0.1-0.3-0.1-0.5q0-0.2-0.1-0.4q0-0.2 0-0.5c-0.2-1.9-1.4-3.5-2.9-3.8l-1.1-0.2c0 0 1.7 0 2.4-0.5c1.5-1 1.9-4.1 1.9-4.1c0 0 0.3 3.1 1.8 4.1c0.7 0.5 2.4 0.5 2.4 0.5l-1.1 0.2c-1.5 0.3-2.6 1.9-2.9 3.8q0 0.3 0 0.5q0 0.2-0.1 0.4q0 0.2 0 0.5q-0.1 0.2-0.1 0.4q-0.1-0.2-0.1-0.4z"/>
		<g id="Layer" style="opacity: .7">
			<path id="Layer" class="s1" d="m125.2 65.6q-0.1-0.3-0.1-0.5q0-0.2-0.1-0.4q0-0.2 0-0.5c-0.2-1.9-1.4-3.5-2.9-3.8l-1.1-0.2c0 0 1.7 0 2.4-0.5c1.5-1 1.9-4.1 1.9-4.1c0 0 0.3 3.1 1.8 4.1c0.7 0.5 2.4 0.5 2.4 0.5l-1.1 0.2c-1.5 0.3-2.6 1.9-2.9 3.8q0 0.3 0 0.5q0 0.2-0.1 0.4q0 0.2 0 0.5q-0.1 0.2-0.1 0.4q-0.1-0.2-0.1-0.4z"/>
		</g>
		<path id="Layer" class="s0" d="m33.6 90.2q-0.1-0.2-0.1-0.5q0-0.2-0.1-0.4q0-0.2 0-0.4c-0.2-2-1.4-3.5-2.9-3.9l-1.1-0.2c0 0 1.7 0 2.4-0.5c1.5-1 1.9-4.1 1.9-4.1c0 0 0.3 3.1 1.8 4.1c0.7 0.5 2.4 0.5 2.4 0.5l-1.1 0.2c-1.4 0.4-2.6 1.9-2.9 3.9q0 0.2 0 0.4q0 0.2-0.1 0.4q0 0.3 0 0.5q-0.1 0.2-0.1 0.4q-0.1-0.2-0.1-0.4z"/>
		<g id="Layer" style="opacity: .7">
			<path id="Layer" class="s1" d="m33.6 90.2q-0.1-0.2-0.1-0.5q0-0.2-0.1-0.4q0-0.2 0-0.4c-0.2-2-1.4-3.5-2.9-3.9l-1.1-0.2c0 0 1.7 0 2.4-0.5c1.5-1 1.9-4.1 1.9-4.1c0 0 0.3 3.1 1.8 4.1c0.7 0.5 2.4 0.5 2.4 0.5l-1.1 0.2c-1.4 0.4-2.6 1.9-2.9 3.9q0 0.2 0 0.4q0 0.2-0.1 0.4q0 0.3 0 0.5q-0.1 0.2-0.1 0.4q-0.1-0.2-0.1-0.4z"/>
		</g>
	</g>
</svg>